<?xml version="1.0" encoding="UTF-8" standalone="no"?>
<!-- Generator: Adobe Illustrator 21.1.0, SVG Export Plug-In . SVG Version: 6.00 Build 0)  -->

<svg
   xmlns:dc="http://purl.org/dc/elements/1.1/"
   xmlns:cc="http://creativecommons.org/ns#"
   xmlns:rdf="http://www.w3.org/1999/02/22-rdf-syntax-ns#"
   xmlns:svg="http://www.w3.org/2000/svg"
   xmlns="http://www.w3.org/2000/svg"
   xmlns:sodipodi="http://sodipodi.sourceforge.net/DTD/sodipodi-0.dtd"
   xmlns:inkscape="http://www.inkscape.org/namespaces/inkscape"
   version="1.1"
   id="svg2"
   inkscape:version="0.91 r13725"
   sodipodi:docname="icon-search-svg.svg"
   x="0px"
   y="0px"
   width="336.3px"
   height="337.7px"
   viewBox="0 0 336.3 337.7"
   style="enable-background:new 0 0 336.3 337.7;"
   xml:space="preserve"><metadata
     id="metadata9"><rdf:RDF><cc:Work
         rdf:about=""><dc:format>image/svg+xml</dc:format><dc:type
           rdf:resource="http://purl.org/dc/dcmitype/StillImage" /></cc:Work></rdf:RDF></metadata><defs
     id="defs7" /><style
     type="text/css"
     id="style3">
	.st0{fill:#FFD608;}
</style><sodipodi:namedview
     bordercolor="#666666"
     borderopacity="1"
     gridtolerance="10"
     guidetolerance="10"
     id="namedview6"
     inkscape:current-layer="svg2"
     inkscape:cx="-305.08475"
     inkscape:cy="250"
     inkscape:pageopacity="0"
     inkscape:pageshadow="2"
     inkscape:window-height="987"
     inkscape:window-maximized="1"
     inkscape:window-width="1680"
     inkscape:window-x="-8"
     inkscape:window-y="-8"
     inkscape:zoom="0.472"
     objecttolerance="10"
     pagecolor="#ffffff"
     showgrid="false" /><path
     id="path4"
     inkscape:connector-curvature="0"
     class="st0"
     d="m 309.90794,286.59662 -59.10045,-58.9934 c 13.30855,-19.63538 21.01349,-43.28511 21.01349,-68.76747 0,-67.98204 -55.24797,-123.135637 -123.36671,-123.135637 C 80.247976,35.612845 25,90.766442 25,158.74848 c 0,67.98205 55.247976,123.13564 123.36672,123.13564 25.12863,0 48.50615,-7.50508 68.03118,-20.42078 l 59.27556,59.16793 c 9.45607,9.42499 24.77841,9.42499 34.23448,0 9.45608,-9.33771 9.45608,-24.60967 0,-34.03465 z M 54.243778,158.74848 c 0,-51.75013 42.202098,-93.900737 94.122942,-93.900737 51.92084,0 94.21049,42.150607 94.21049,93.988007 0,51.8374 -42.2021,93.98802 -94.21049,93.98802 -52.008399,0 -94.122942,-42.23789 -94.122942,-94.07529 l 0,0 z"
     style="fill:#ffd608" /></svg>