<?xml version="1.0" encoding="utf-8"?>
<!-- Generator: Adobe Illustrator 19.2.1, SVG Export Plug-In . SVG Version: 6.00 Build 0)  -->
<svg version="1.1" id="ShopBag" xmlns="http://www.w3.org/2000/svg" xmlns:xlink="http://www.w3.org/1999/xlink" x="0px" y="0px"
	 viewBox="0 0 20 20" style="enable-background:new 0 0 20 20;" xml:space="preserve">
<style type="text/css">
	.st0{fill:#191919;}
</style>
<path class="st0" d="M1.7,2.1h2.2c0.2,0,0.4,0.1,0.5,0.3l0.7,1.4C5.2,4,5.3,4.1,5.5,4.1h11.7c0.4,0,0.6,0.4,0.5,0.7l-3,6.5
	c-0.1,0.2-0.3,0.3-0.5,0.3H7.6c-0.3,0-0.5,0.2-0.5,0.5v0.4c0,0.3,0.2,0.5,0.5,0.5h6.7c0.3,0,0.5,0.2,0.5,0.5v0.2
	c0,0.3-0.2,0.5-0.5,0.5H6.4c-0.2,0-0.3-0.1-0.4-0.2l-0.9-1.1C5,13,5,12.9,5,12.8L3,3.6C3,3.3,2.8,3.2,2.5,3.2l-0.9,0
	c-0.3,0-0.5-0.2-0.5-0.5v0C1.1,2.3,1.4,2.1,1.7,2.1z"/>
<circle class="st0" cx="7.5" cy="16.1" r="1.3"/>
<circle class="st0" cx="13.2" cy="16.1" r="1.3"/>
</svg>
